<svg width="1920" height="480" viewBox="0 0 1920 480" fill="none" xmlns="http://www.w3.org/2000/svg">
<rect opacity="0.05" width="1920" height="480" fill="url(#paint0_linear_0_351)"/>
<mask id="mask0_0_351" style="mask-type:luminance" maskUnits="userSpaceOnUse" x="0" y="0" width="1920" height="480">
<rect width="1920" height="480" fill="white"/>
</mask>
<g mask="url(#mask0_0_351)">
<path fill-rule="evenodd" clip-rule="evenodd" d="M328 294C333.523 294 338 289.523 338 284C338 278.477 333.523 274 328 274C322.477 274 318 278.477 318 284C318 289.523 322.477 294 328 294Z" fill="#6852ED"/>
<path fill-rule="evenodd" clip-rule="evenodd" d="M390 99C403.807 99 415 87.8071 415 74C415 60.1929 403.807 49 390 49C376.193 49 365 60.1929 365 74C365 87.8071 376.193 99 390 99Z" fill="#BA43FC"/>
<path fill-rule="evenodd" clip-rule="evenodd" d="M116.5 249C166.482 249 207 208.482 207 158.5C207 108.518 166.482 68 116.5 68C66.5182 68 26 108.518 26 158.5C26 208.482 66.5182 249 116.5 249Z" fill="#BA43FC"/>
<path fill-rule="evenodd" clip-rule="evenodd" d="M1301.5 86C1311.72 86 1320 77.7173 1320 67.5C1320 57.2827 1311.72 49 1301.5 49C1291.28 49 1283 57.2827 1283 67.5C1283 77.7173 1291.28 86 1301.5 86Z" fill="#BA43FC"/>
<path fill-rule="evenodd" clip-rule="evenodd" d="M1505 394C1527.09 394 1545 376.091 1545 354C1545 331.909 1527.09 314 1505 314C1482.91 314 1465 331.909 1465 354C1465 376.091 1482.91 394 1505 394Z" fill="#6852ED"/>
<path fill-rule="evenodd" clip-rule="evenodd" d="M1920.5 324C1979.87 324 2028 275.871 2028 216.5C2028 157.129 1979.87 109 1920.5 109C1861.13 109 1813 157.129 1813 216.5C1813 275.871 1861.13 324 1920.5 324Z" fill="#BA43FC"/>
<path fill-rule="evenodd" clip-rule="evenodd" d="M1760.01 40.7201C1740.28 22.2744 1728.94 -2.71634 1728.06 -29.6667C1727.17 -56.6277 1736.86 -82.3063 1755.34 -101.984L2122.42 -493.052C2141.46 -513.35 2168.39 -525 2196.27 -525C2222.04 -525 2246.59 -515.31 2265.41 -497.72C2306.12 -459.657 2308.21 -395.644 2270.08 -355.016L1903.01 36.0558C1883.96 56.3537 1857.03 68 1829.15 68C1803.38 68 1778.82 58.3096 1760.01 40.7201" fill="#6852ED"/>
<path fill-rule="evenodd" clip-rule="evenodd" d="M50.0575 895.369C49.1453 867.589 59.1197 841.131 78.1232 820.856L455.752 417.917C475.346 397.004 503.042 385 531.725 385C558.236 385 583.495 394.985 602.857 413.108C644.734 452.326 646.887 518.283 607.661 560.144L230.036 963.086C210.438 984 182.742 996 154.056 996C127.548 996 102.282 986.015 82.9313 967.892C62.6353 948.886 50.9622 923.137 50.0575 895.369Z" fill="#6852ED"/>
</g>
<defs>
<linearGradient id="paint0_linear_0_351" x1="0" y1="0" x2="0" y2="480" gradientUnits="userSpaceOnUse">
<stop stop-color="#6852ED"/>
<stop offset="1" stop-color="#BA43FC"/>
</linearGradient>
</defs>
</svg>
